<svg width="60" height="60" viewBox="0 0 60 60" fill="none" xmlns="http://www.w3.org/2000/svg">
<path d="M60 29.97C60 13.425 46.56 0 30 0C13.44 0 0 13.425 0 29.97C0 39.0825 4.14 47.295 10.62 52.8075C10.68 52.8675 10.74 52.8675 10.74 52.9275C11.28 53.3475 11.82 53.7675 12.42 54.1875C12.72 54.3675 12.96 54.6037 13.26 54.8438C18.2178 58.2051 24.0702 60.0013 30.06 60C36.0498 60.0013 41.9022 58.2051 46.86 54.8438C47.16 54.6637 47.4 54.4275 47.7 54.2438C48.24 53.8275 48.84 53.4075 49.38 52.9875C49.44 52.9275 49.5 52.9275 49.5 52.8675C55.86 47.2912 60 39.0825 60 29.97V29.97ZM30 56.2238C24.36 56.2238 19.2 54.4237 14.94 51.4275C15 50.9475 15.12 50.4713 15.24 49.9913C15.5975 48.6904 16.1219 47.4413 16.8 46.275C17.46 45.135 18.24 44.115 19.2 43.215C20.1 42.315 21.18 41.4788 22.26 40.8188C23.4 40.1588 24.6 39.6787 25.92 39.3187C27.2503 38.9602 28.6223 38.7799 30 38.7825C34.0899 38.7535 38.0296 40.3224 40.98 43.155C42.36 44.535 43.44 46.155 44.22 48.0113C44.64 49.0913 44.94 50.2312 45.12 51.4275C40.6919 54.5406 35.4129 56.2152 30 56.2238ZM20.82 28.4737C20.2913 27.2633 20.0255 25.9545 20.04 24.6337C20.04 23.3175 20.28 21.9975 20.82 20.7975C21.36 19.5975 22.08 18.5212 22.98 17.6212C23.88 16.7212 24.96 16.005 26.16 15.465C27.36 14.925 28.68 14.685 30 14.685C31.38 14.685 32.64 14.925 33.84 15.465C35.04 16.005 36.12 16.725 37.02 17.6212C37.92 18.5212 38.64 19.6012 39.18 20.7975C39.72 21.9975 39.96 23.3175 39.96 24.6337C39.96 26.0137 39.72 27.2738 39.18 28.47C38.6589 29.6522 37.9269 30.7298 37.02 31.65C36.0995 32.5556 35.022 33.2862 33.84 33.8063C31.3606 34.8252 28.5794 34.8252 26.1 33.8063C24.918 33.2862 23.8405 32.5556 22.92 31.65C22.0118 30.7432 21.2973 29.6613 20.82 28.47V28.4737ZM48.66 48.3713C48.66 48.2513 48.6 48.1913 48.6 48.0713C48.0099 46.1941 47.1401 44.4166 46.02 42.7988C44.8988 41.1689 43.521 39.7315 41.94 38.5425C40.7326 37.6342 39.4238 36.8691 38.04 36.2625C38.6696 35.8472 39.2529 35.3657 39.78 34.8262C40.6745 33.9431 41.4601 32.9561 42.12 31.8863C43.4488 29.703 44.1351 27.1893 44.1 24.6337C44.1186 22.7419 43.7511 20.8662 43.02 19.1212C42.2982 17.4399 41.2593 15.9133 39.96 14.625C38.6627 13.3501 37.1358 12.3322 35.46 11.625C33.7121 10.8952 31.834 10.529 29.94 10.5487C28.0458 10.5302 26.1676 10.8977 24.42 11.6288C22.7297 12.3345 21.1992 13.3739 19.92 14.685C18.6452 15.981 17.6272 17.5066 16.92 19.1812C16.1889 20.9262 15.8214 22.8019 15.84 24.6938C15.84 26.0138 16.02 27.2738 16.38 28.47C16.74 29.73 17.22 30.87 17.88 31.9463C18.48 33.0263 19.32 33.9863 20.22 34.8863C20.76 35.4263 21.36 35.9025 22.02 36.3225C20.6319 36.9452 19.3227 37.7307 18.12 38.6625C16.56 39.8625 15.18 41.2987 14.04 42.8587C12.9085 44.4699 12.0378 46.2492 11.46 48.1313C11.4 48.2513 11.4 48.3712 11.4 48.4312C6.66 43.635 3.72 37.1625 3.72 29.97C3.72 15.525 15.54 3.71625 30 3.71625C44.46 3.71625 56.28 15.525 56.28 29.97C56.2721 36.8698 53.5324 43.4858 48.66 48.3713V48.3713Z" fill="#495963"/>
</svg>
