<svg width="53" height="53" viewBox="0 0 53 53" fill="none" xmlns="http://www.w3.org/2000/svg">
<path fill-rule="evenodd" clip-rule="evenodd" d="M0 26.492C0 19.4659 2.79111 12.7275 7.75933 7.75933C12.7275 2.79111 19.4659 0 26.492 0C33.5181 0 40.2565 2.79111 45.2247 7.75933C50.1929 12.7275 52.984 19.4659 52.984 26.492C52.984 33.5181 50.1929 40.2565 45.2247 45.2247C40.2565 50.1929 33.5181 52.984 26.492 52.984C19.4659 52.984 12.7275 50.1929 7.75933 45.2247C2.79111 40.2565 0 33.5181 0 26.492V26.492ZM26.492 3.8C20.4737 3.8 14.7019 6.19076 10.4463 10.4463C6.19076 14.7019 3.8 20.4737 3.8 26.492C3.8 32.5103 6.19076 38.2821 10.4463 42.5377C14.7019 46.7932 20.4737 49.184 26.492 49.184C32.5103 49.184 38.2821 46.7932 42.5377 42.5377C46.7932 38.2821 49.184 32.5103 49.184 26.492C49.184 20.4737 46.7932 14.7019 42.5377 10.4463C38.2821 6.19076 32.5103 3.8 26.492 3.8V3.8ZM29.492 38.492C29.492 39.2877 29.1759 40.0507 28.6133 40.6133C28.0507 41.1759 27.2877 41.492 26.492 41.492C25.6964 41.492 24.9333 41.1759 24.3707 40.6133C23.8081 40.0507 23.492 39.2877 23.492 38.492C23.492 37.6964 23.8081 36.9333 24.3707 36.3707C24.9333 35.8081 25.6964 35.492 26.492 35.492C27.2877 35.492 28.0507 35.8081 28.6133 36.3707C29.1759 36.9333 29.492 37.6964 29.492 38.492ZM20.692 21.492C20.692 18.78 23.032 16.192 26.492 16.192C29.952 16.192 32.292 18.78 32.292 21.492C32.292 23.456 31.212 24.46 29.348 25.592C29.144 25.72 28.904 25.856 28.644 26.008C27.8623 26.4398 27.1088 26.9208 26.388 27.448C25.42 28.2 24.292 29.42 24.292 31.292C24.2899 31.8755 24.5196 32.4359 24.9307 32.85C25.3418 33.2641 25.9005 33.4979 26.484 33.5C27.0675 33.5021 27.6279 33.2724 28.042 32.8613C28.4561 32.4502 28.6899 31.8915 28.692 31.308C28.8037 31.157 28.9387 31.0246 29.092 30.916C29.5 30.6 29.952 30.34 30.556 29.988C30.868 29.808 31.224 29.6 31.636 29.352C33.772 28.052 36.692 25.908 36.692 21.492C36.692 16.204 32.232 11.792 26.492 11.792C20.752 11.792 16.292 16.204 16.292 21.492C16.292 22.0755 16.5238 22.6351 16.9364 23.0476C17.3489 23.4602 17.9085 23.692 18.492 23.692C19.0755 23.692 19.6351 23.4602 20.0476 23.0476C20.4602 22.6351 20.692 22.0755 20.692 21.492V21.492Z" fill="white"/>
</svg>
