<svg width="60" height="60" viewBox="0 0 60 60" fill="none" xmlns="http://www.w3.org/2000/svg">
<g id="radix-icons:question-mark-circled" clip-path="url(#clip0)">
<g id="Group">
<path id="Vector" fill-rule="evenodd" clip-rule="evenodd" d="M3.50781 29.9998C3.50781 22.9737 6.29893 16.2354 11.2671 11.2671C16.2354 6.29893 22.9737 3.50781 29.9998 3.50781C37.0259 3.50781 43.7643 6.29893 48.7325 11.2671C53.7007 16.2354 56.4918 22.9737 56.4918 29.9998C56.4918 37.0259 53.7007 43.7643 48.7325 48.7325C43.7643 53.7007 37.0259 56.4918 29.9998 56.4918C22.9737 56.4918 16.2354 53.7007 11.2671 48.7325C6.29893 43.7643 3.50781 37.0259 3.50781 29.9998V29.9998ZM29.9998 7.30781C23.9815 7.30781 18.2097 9.69857 13.9541 13.9541C9.69857 18.2097 7.30781 23.9815 7.30781 29.9998C7.30781 36.0181 9.69857 41.7899 13.9541 46.0455C18.2097 50.3011 23.9815 52.6918 29.9998 52.6918C36.0181 52.6918 41.7899 50.3011 46.0455 46.0455C50.3011 41.7899 52.6918 36.0181 52.6918 29.9998C52.6918 23.9815 50.3011 18.2097 46.0455 13.9541C41.7899 9.69857 36.0181 7.30781 29.9998 7.30781V7.30781ZM32.9998 41.9998C32.9998 42.7955 32.6837 43.5585 32.1211 44.1211C31.5585 44.6837 30.7955 44.9998 29.9998 44.9998C29.2042 44.9998 28.4411 44.6837 27.8785 44.1211C27.3159 43.5585 26.9998 42.7955 26.9998 41.9998C26.9998 41.2042 27.3159 40.4411 27.8785 39.8785C28.4411 39.3159 29.2042 38.9998 29.9998 38.9998C30.7955 38.9998 31.5585 39.3159 32.1211 39.8785C32.6837 40.4411 32.9998 41.2042 32.9998 41.9998ZM24.1998 24.9998C24.1998 22.2878 26.5398 19.6998 29.9998 19.6998C33.4598 19.6998 35.7998 22.2878 35.7998 24.9998C35.7998 26.9638 34.7198 27.9678 32.8558 29.0998C32.6518 29.2278 32.4118 29.3638 32.1518 29.5158C31.3701 29.9476 30.6166 30.4286 29.8958 30.9558C28.9278 31.7078 27.7998 32.9278 27.7998 34.7998C27.7977 35.3833 28.0274 35.9437 28.4385 36.3578C28.8496 36.7719 29.4083 37.0057 29.9918 37.0078C30.5753 37.0099 31.1357 36.7802 31.5498 36.3691C31.9639 35.958 32.1977 35.3993 32.1998 34.8158C32.3115 34.6648 32.4465 34.5325 32.5998 34.4238C33.0078 34.1078 33.4598 33.8478 34.0638 33.4958C34.3758 33.3158 34.7318 33.1078 35.1438 32.8598C37.2798 31.5598 40.1998 29.4158 40.1998 24.9998C40.1998 19.7118 35.7398 15.2998 29.9998 15.2998C24.2598 15.2998 19.7998 19.7118 19.7998 24.9998C19.7998 25.5833 20.0316 26.1429 20.4442 26.5555C20.8568 26.968 21.4163 27.1998 21.9998 27.1998C22.5833 27.1998 23.1429 26.968 23.5555 26.5555C23.968 26.1429 24.1998 25.5833 24.1998 24.9998V24.9998Z" fill="#495963"/>
</g>
</g>
<defs>
<clipPath id="clip0">
<rect width="60" height="60" fill="white"/>
</clipPath>
</defs>
</svg>
