<svg width="1096" height="581" viewBox="0 0 1096 581" fill="none" xmlns="http://www.w3.org/2000/svg">
<g id="keystage-4">
<g id="key-stage">
<path id="K" d="M109.48 307.049L101.724 312.36L130.516 370.413L116.82 379.792L54.615 254.37L68.3114 244.991L97.281 303.402L103.463 295.808L114.516 213.35L130.358 202.502L118.492 282.876L114.494 293.535L126.464 294.939L197.678 324.421L180.351 336.286L109.48 307.049Z" fill="#576482"/>
<path id="E" d="M164.01 183.628L232.655 150.548L237.464 164.544L183.773 190.419L198.655 233.734L247.841 210.03L252.65 224.027L203.464 247.731L219.645 294.828L274.237 268.52L279.045 282.517L209.5 316.032L164.01 183.628Z" fill="#576482"/>
<path id="Y" d="M315.028 210.296L253.21 141.393L271.747 135.672L315.903 185.841L321.707 196.768L321.898 196.709L322.699 183.326L339.971 114.614L356.979 109.364L330.848 205.205L342.532 259.768L326.671 264.664L315.028 210.296Z" fill="#576482"/>
<path id="S" d="M503.433 197.726C503.241 192.129 501.422 187.709 497.977 184.466C494.528 181.089 490.229 178.236 485.082 175.907C480.064 173.436 474.586 171.195 468.65 169.186C462.714 167.176 457.161 164.674 451.991 161.679C446.95 158.541 442.681 154.618 439.186 149.908C435.686 145.066 433.804 138.78 433.538 131.051C433.163 120.124 436.657 111.211 444.021 104.311C451.385 97.4103 462.051 93.4959 476.02 92.5674C484.136 92.0281 491.54 92.1369 498.233 92.8941C504.926 93.6513 510.167 94.8388 513.957 96.4568L509.469 111.38C506.358 110.117 501.787 109.019 495.754 108.084C489.855 107.141 483.18 106.917 475.73 107.412C466.949 107.995 460.432 110.432 456.179 114.721C451.922 118.878 449.884 123.621 450.067 128.951C450.246 134.148 452.058 138.368 455.502 141.612C458.947 144.855 463.179 147.713 468.198 150.184C473.345 152.513 478.891 154.815 484.836 157.091C490.781 159.367 496.277 162.141 501.323 165.412C506.498 168.54 510.832 172.459 514.328 177.168C517.823 181.878 519.697 187.897 519.948 195.226C520.154 201.223 519.275 206.69 517.311 211.629C515.347 216.567 512.363 220.906 508.357 224.645C504.352 228.384 499.455 231.38 493.665 233.635C487.875 235.89 481.255 237.264 473.805 237.76C463.827 238.423 455.551 238.172 448.977 237.006C442.408 235.973 437.295 234.644 433.639 233.017L438.712 217.654C441.831 219.183 446.414 220.615 452.461 221.949C458.502 223.15 465.248 223.503 472.698 223.008C477.089 222.716 481.199 222.042 485.03 220.987C488.856 219.797 492.134 218.177 494.864 216.126C497.589 213.941 499.7 211.33 501.195 208.292C502.824 205.246 503.57 201.724 503.433 197.726Z" fill="#576482"/>
<path id="T" d="M635.325 116.886L591.898 113.009L581.838 237.804L565.304 236.328L575.364 111.533L531.937 107.655L533.126 92.9032L636.514 102.134L635.325 116.886Z" fill="#576482"/>
<path id="A" d="M703.527 224.129L653.542 211.323L632.253 245.871L616.366 241.801L696.027 115.603L703.389 117.489L726.605 270.044L709.75 265.726L703.527 224.129ZM661.641 198.552L701.551 208.777L694.923 163.158L694.302 141.142L694.108 141.092L684.963 161.019L661.641 198.552Z" fill="#576482"/>
<path id="G" d="M794.698 228.471L837.653 247.547L817.798 305.859C815.332 306.508 812.483 306.841 809.251 306.858C806.14 306.93 802.85 306.704 799.381 306.181C796.034 305.711 792.59 304.908 789.049 303.772C785.587 302.816 782.271 301.634 779.103 300.227C770.939 296.601 763.896 291.948 757.974 286.267C752.095 280.46 747.604 273.67 744.498 265.898C741.436 258 739.965 249.137 740.085 239.309C740.247 229.356 742.327 218.51 746.324 206.772C750.493 194.529 755.766 184.81 762.143 177.616C768.521 170.423 775.375 165.33 782.707 162.337C790.082 159.219 797.611 157.913 805.294 158.419C812.978 158.925 820.232 160.693 827.056 163.724C834.367 166.97 840.249 170.091 844.701 173.085C849.195 175.952 852.851 178.811 855.669 181.661L847.124 193.777C842.263 188.276 834.41 183.118 823.565 178.302C818.447 176.029 813.006 174.703 807.244 174.323C801.646 173.872 796.106 174.899 790.623 177.404C785.141 179.91 779.938 184.065 775.015 189.871C770.092 195.677 765.89 203.691 762.409 213.915C759.229 223.255 757.514 231.793 757.265 239.528C757.016 247.264 757.946 254.215 760.054 260.383C762.327 266.478 765.697 271.825 770.164 276.424C774.673 280.896 780.035 284.512 786.25 287.272C794.049 290.735 801.227 292.107 807.785 291.387L820.356 254.468L791.668 237.37L794.698 228.471Z" fill="#576482"/>
<path id="E_2" d="M887.212 199.091L951.181 240.496L944.689 253.796L894.655 221.411L874.565 262.569L920.401 292.237L913.909 305.537L868.073 275.869L846.227 320.622L897.101 353.551L890.608 366.851L825.8 324.902L887.212 199.091Z" fill="#576482"/>
</g>
<path id="4" d="M557.8 464H534.2V507H518.6V464H457V457.4L523.4 364.8H534.2V450H557.8V464ZM518.6 406.4L520.6 390H520L513 403.6L484.8 441.8L475.2 451.6L489.2 450H518.6V406.4Z" fill="#576482"/>
</g>
</svg>
