<svg width="316" height="150" viewBox="0 0 316 150" fill="none" xmlns="http://www.w3.org/2000/svg">
<g id="NEW LOGO">
<g id="ph:magnifying-glass-bold">
<path id="Vector" d="M118.487 48.8279L108.953 39.6118C112.467 35.2368 114.125 29.7315 113.588 24.2167C113.051 18.7019 110.36 13.5922 106.063 9.92789C101.766 6.26355 96.1856 4.32005 90.4583 4.49306C84.7309 4.66606 79.287 6.94257 75.2349 10.8591C71.1829 14.7757 68.8272 20.0378 68.6476 25.5742C68.4679 31.1107 70.4778 36.5052 74.268 40.6595C78.0582 44.8139 83.3437 47.4157 89.0486 47.9353C94.7535 48.455 100.449 46.8534 104.975 43.4566L114.509 52.6727C114.77 52.9285 115.08 53.132 115.422 53.2713C115.764 53.4107 116.131 53.4832 116.503 53.4847C116.874 53.4861 117.242 53.4165 117.585 53.2798C117.928 53.1432 118.24 52.9422 118.503 52.6884C118.765 52.4346 118.973 52.1331 119.115 51.8012C119.256 51.4694 119.328 51.1138 119.327 50.7549C119.325 50.396 119.25 50.0409 119.106 49.7102C118.962 49.3795 118.751 49.0796 118.487 48.8279H118.487ZM74.3118 26.2813C74.3118 23.055 75.3015 19.9011 77.1558 17.2186C79.01 14.536 81.6455 12.4452 84.729 11.2105C87.8126 9.97587 91.2056 9.65283 94.479 10.2823C97.7524 10.9117 100.759 12.4653 103.119 14.7466C105.479 17.028 107.086 19.9346 107.738 23.0989C108.389 26.2632 108.055 29.5431 106.777 32.5238C105.5 35.5046 103.337 38.0522 100.562 39.8447C97.787 41.6371 94.5244 42.5938 91.1868 42.5938C86.7128 42.5889 82.4235 40.8688 79.26 37.8106C76.0964 34.7525 74.3169 30.6062 74.3118 26.2813Z" fill="#FFD975"/>
</g>
<path id="checkify" d="M98.1949 34.752C97.3109 35.35 96.2449 35.805 94.9969 36.117C93.7749 36.429 92.5009 36.585 91.1749 36.585C89.4069 36.585 87.9119 36.325 86.6899 35.805C85.4939 35.285 84.5059 34.544 83.7259 33.582C82.9719 32.62 82.4259 31.489 82.0879 30.189C81.7499 28.863 81.5809 27.394 81.5809 25.782C81.5809 22.376 82.4129 19.724 84.0769 17.826C85.7669 15.902 88.2109 14.94 91.4089 14.94C92.9689 14.94 94.2429 15.07 95.2309 15.33C96.2449 15.564 97.1419 15.876 97.9219 16.266L96.5959 20.634C95.9199 20.348 95.2439 20.14 94.5679 20.01C93.9179 19.854 93.1509 19.776 92.2669 19.776C90.6289 19.776 89.3679 20.257 88.4839 21.219C87.6259 22.155 87.1969 23.676 87.1969 25.782C87.1969 26.614 87.3009 27.394 87.5089 28.122C87.7169 28.824 88.0419 29.448 88.4839 29.994C88.9259 30.54 89.4849 30.969 90.1609 31.281C90.8369 31.593 91.6299 31.749 92.5399 31.749C93.6319 31.749 94.4899 31.658 95.1139 31.476C95.7639 31.268 96.3749 30.995 96.9469 30.657L98.1949 34.752ZM116.057 36V24.729C116.057 22.961 115.784 21.7 115.238 20.946C114.718 20.166 113.743 19.776 112.313 19.776C111.273 19.776 110.311 20.114 109.427 20.79C108.569 21.44 107.997 22.311 107.711 23.403V36H102.251V8.7H107.711V18.021H108.179C108.881 17.111 109.752 16.37 110.792 15.798C111.858 15.226 113.197 14.94 114.809 14.94C115.927 14.94 116.902 15.083 117.734 15.369C118.566 15.629 119.255 16.097 119.801 16.773C120.373 17.423 120.802 18.307 121.088 19.425C121.374 20.517 121.517 21.882 121.517 23.52V36H116.057ZM144.632 34.128C143.748 34.804 142.539 35.389 141.005 35.883C139.497 36.351 137.872 36.585 136.13 36.585C132.62 36.585 130.046 35.623 128.408 33.699C126.77 31.775 125.951 29.136 125.951 25.782C125.951 22.22 126.874 19.529 128.72 17.709C130.566 15.863 133.166 14.94 136.52 14.94C137.612 14.94 138.691 15.083 139.757 15.369C140.823 15.629 141.772 16.084 142.604 16.734C143.436 17.358 144.099 18.216 144.593 19.308C145.113 20.374 145.373 21.7 145.373 23.286C145.373 23.832 145.334 24.43 145.256 25.08C145.204 25.73 145.1 26.406 144.944 27.108H131.294C131.424 28.876 131.931 30.189 132.815 31.047C133.725 31.879 135.194 32.295 137.222 32.295C138.444 32.295 139.536 32.126 140.498 31.788C141.486 31.424 142.24 31.06 142.76 30.696L144.632 34.128ZM136.442 19.23C134.83 19.23 133.634 19.672 132.854 20.556C132.074 21.414 131.619 22.519 131.489 23.871H140.303C140.407 22.441 140.147 21.31 139.523 20.478C138.899 19.646 137.872 19.23 136.442 19.23ZM165.493 34.752C164.609 35.35 163.543 35.805 162.295 36.117C161.073 36.429 159.799 36.585 158.473 36.585C156.705 36.585 155.21 36.325 153.988 35.805C152.792 35.285 151.804 34.544 151.024 33.582C150.27 32.62 149.724 31.489 149.386 30.189C149.048 28.863 148.879 27.394 148.879 25.782C148.879 22.376 149.711 19.724 151.375 17.826C153.065 15.902 155.509 14.94 158.707 14.94C160.267 14.94 161.541 15.07 162.529 15.33C163.543 15.564 164.44 15.876 165.22 16.266L163.894 20.634C163.218 20.348 162.542 20.14 161.866 20.01C161.216 19.854 160.449 19.776 159.565 19.776C157.927 19.776 156.666 20.257 155.782 21.219C154.924 22.155 154.495 23.676 154.495 25.782C154.495 26.614 154.599 27.394 154.807 28.122C155.015 28.824 155.34 29.448 155.782 29.994C156.224 30.54 156.783 30.969 157.459 31.281C158.135 31.593 158.928 31.749 159.838 31.749C160.93 31.749 161.788 31.658 162.412 31.476C163.062 31.268 163.673 30.995 164.245 30.657L165.493 34.752ZM176.881 27.498H175.009V36H169.549V8.7H175.009V24.378L176.725 23.637L181.834 15.525H187.84L182.614 22.974H182.653L180.157 24.768L182.77 26.484H182.731L188.737 36H182.419L176.881 27.498ZM192.225 15.525H197.685V36H192.225V15.525ZM191.406 10.416C191.406 9.584 191.705 8.895 192.303 8.349C192.901 7.777 193.746 7.491 194.838 7.491C195.956 7.491 196.84 7.777 197.49 8.349C198.14 8.921 198.465 9.61 198.465 10.416C198.465 11.17 198.14 11.82 197.49 12.366C196.84 12.912 195.956 13.185 194.838 13.185C193.746 13.185 192.901 12.912 192.303 12.366C191.705 11.82 191.406 11.17 191.406 10.416ZM201.756 15.525H204.837V14.238C204.837 13.042 205.019 12.067 205.383 11.313C205.747 10.533 206.241 9.922 206.865 9.48C207.489 9.012 208.204 8.687 209.01 8.505C209.842 8.323 210.7 8.232 211.584 8.232C212.832 8.232 213.911 8.297 214.821 8.427C215.757 8.531 216.628 8.713 217.434 8.973L216.42 13.224C215.77 13.016 215.185 12.873 214.665 12.795C214.145 12.717 213.586 12.678 212.988 12.678C211.87 12.678 211.142 12.886 210.804 13.302C210.466 13.718 210.297 14.459 210.297 15.525H215.289V20.088H210.297V36H204.837V20.088H201.756V15.525ZM225.254 26.874L226.112 30.15H226.502L227.243 26.874L230.714 15.525H236.291L229.505 34.05C228.933 35.584 228.387 36.962 227.867 38.184C227.373 39.406 226.827 40.446 226.229 41.304C225.631 42.162 224.955 42.812 224.201 43.254C223.473 43.722 222.602 43.956 221.588 43.956C220.912 43.956 220.262 43.891 219.638 43.761C219.04 43.657 218.52 43.488 218.078 43.254L219.209 39.042C219.599 39.172 220.002 39.237 220.418 39.237C220.782 39.237 221.133 39.198 221.471 39.12C221.809 39.042 222.121 38.886 222.407 38.652C222.693 38.444 222.953 38.132 223.187 37.716C223.447 37.326 223.668 36.793 223.85 36.117L214.49 15.525H221.081L225.254 26.874Z" fill="#70BF81"/>
</g>
</svg>
