<svg width="60" height="60" viewBox="0 0 60 60" fill="none" xmlns="http://www.w3.org/2000/svg">
<path fill-rule="evenodd" clip-rule="evenodd" d="M16.2498 27.5C10.0366 27.5 4.99976 22.4632 4.99976 16.25C4.99976 10.0368 10.0366 5 16.2498 5C22.463 5 27.4998 10.0368 27.4998 16.25C27.4998 22.4632 22.463 27.5 16.2498 27.5ZM4.99976 43.75C4.99976 49.9632 10.0366 55 16.2498 55C22.463 55 27.4998 49.9632 27.4998 43.75C27.4998 37.5368 22.463 32.5 16.2498 32.5C10.0366 32.5 4.99976 37.5368 4.99976 43.75ZM32.4995 43.75C32.4995 49.9632 37.5363 55 43.7495 55C49.9627 55 54.9995 49.9632 54.9995 43.75C54.9995 37.5368 49.9627 32.5 43.7495 32.5C37.5363 32.5 32.4995 37.5368 32.4995 43.75ZM32.4995 16.25C32.4995 22.4632 37.5363 27.5 43.7495 27.5C49.9627 27.5 54.9995 22.4632 54.9995 16.25C54.9995 10.0368 49.9627 5 43.7495 5C37.5363 5 32.4995 10.0368 32.4995 16.25ZM43.75 22.5C47.2017 22.5 50 19.7018 50 16.25C50 12.7982 47.2017 10 43.75 10C40.2982 10 37.5 12.7982 37.5 16.25C37.5 19.7018 40.2982 22.5 43.75 22.5ZM22.4995 16.25C22.4995 19.7018 19.7013 22.5 16.2495 22.5C12.7978 22.5 9.99954 19.7018 9.99954 16.25C9.99954 12.7982 12.7978 10 16.2495 10C19.7013 10 22.4995 12.7982 22.4995 16.25ZM43.75 50C47.2017 50 50 47.2018 50 43.75C50 40.2982 47.2017 37.5 43.75 37.5C40.2982 37.5 37.5 40.2982 37.5 43.75C37.5 47.2018 40.2982 50 43.75 50ZM22.4995 43.75C22.4995 47.2018 19.7013 50 16.2495 50C12.7978 50 9.99954 47.2018 9.99954 43.75C9.99954 40.2982 12.7978 37.5 16.2495 37.5C19.7013 37.5 22.4995 40.2982 22.4995 43.75Z" fill="#495963"/>
</svg>
