<svg width="60" height="60" viewBox="0 0 60 60" fill="none" xmlns="http://www.w3.org/2000/svg">
<path fill-rule="evenodd" clip-rule="evenodd" d="M16.25 27.5C10.0368 27.5 5 22.4632 5 16.25C5 10.0368 10.0368 5 16.25 5C22.4632 5 27.5 10.0368 27.5 16.25C27.5 22.4632 22.4632 27.5 16.25 27.5ZM5 43.75C5 49.9632 10.0368 55 16.25 55C22.4632 55 27.5 49.9632 27.5 43.75C27.5 37.5368 22.4632 32.5 16.25 32.5C10.0368 32.5 5 37.5368 5 43.75ZM32.4998 43.75C32.4998 49.9632 37.5366 55 43.7498 55C49.963 55 54.9998 49.9632 54.9998 43.75C54.9998 37.5368 49.963 32.5 43.7498 32.5C37.5366 32.5 32.4998 37.5368 32.4998 43.75ZM32.4998 16.25C32.4998 22.4632 37.5366 27.5 43.7498 27.5C49.963 27.5 54.9998 22.4632 54.9998 16.25C54.9998 10.0368 49.963 5 43.7498 5C37.5366 5 32.4998 10.0368 32.4998 16.25ZM43.7502 22.5C47.202 22.5 50.0002 19.7018 50.0002 16.25C50.0002 12.7982 47.202 10 43.7502 10C40.2984 10 37.5002 12.7982 37.5002 16.25C37.5002 19.7018 40.2984 22.5 43.7502 22.5ZM22.4998 16.25C22.4998 19.7018 19.7016 22.5 16.2498 22.5C12.798 22.5 9.99979 19.7018 9.99979 16.25C9.99979 12.7982 12.798 10 16.2498 10C19.7016 10 22.4998 12.7982 22.4998 16.25ZM43.7502 50C47.202 50 50.0002 47.2018 50.0002 43.75C50.0002 40.2982 47.202 37.5 43.7502 37.5C40.2984 37.5 37.5002 40.2982 37.5002 43.75C37.5002 47.2018 40.2984 50 43.7502 50ZM22.4998 43.75C22.4998 47.2018 19.7016 50 16.2498 50C12.798 50 9.99979 47.2018 9.99979 43.75C9.99979 40.2982 12.798 37.5 16.2498 37.5C19.7016 37.5 22.4998 40.2982 22.4998 43.75Z" fill="white"/>
</svg>
